<svg xmlns="http://www.w3.org/2000/svg" width="64" height="64"><linearGradient id="a" x1="32.337" x2="31.642" y1="16.5" y2="46.397" gradientUnits="userSpaceOnUse" spreadMethod="reflect"><stop offset="0" stop-color="#6dc7ff"/><stop offset="1" stop-color="#e6abff"/></linearGradient><path fill="url(#a)" fill-rule="evenodd" d="M32 26a5 5 0 100 10 5 5 0 100-10z" clip-rule="evenodd"/><linearGradient id="b" x1="32" x2="32" y1="3.75" y2="59.5" gradientUnits="userSpaceOnUse" spreadMethod="reflect"><stop offset="0" stop-color="#1a6dff"/><stop offset="1" stop-color="#c822ff"/></linearGradient><path fill="url(#b)" d="M31.943 58.001c-.499 0-1.001-.013-1.506-.039a3.487 3.487 0 01-3.245-2.936 375.61 375.61 0 00-.51-3.101 1.486 1.486 0 00-1.027-1.194 19.998 19.998 0 01-3.118-1.3 1.49 1.49 0 00-1.572.113 527.97 527.97 0 01-2.566 1.843 3.476 3.476 0 01-4.345-.213 28.85 28.85 0 01-2.226-2.214 3.487 3.487 0 01-.218-4.37c.583-.808 1.288-1.783 1.832-2.553a1.487 1.487 0 00.118-1.571 19.914 19.914 0 01-1.285-3.125 1.491 1.491 0 00-1.192-1.031l-.211-.034a448.5 448.5 0 01-2.906-.478 3.472 3.472 0 01-2.921-3.222 28.821 28.821 0 01-.008-3.14 3.487 3.487 0 012.936-3.245 375.61 375.61 0 003.101-.51 1.486 1.486 0 001.194-1.027c.351-1.09.788-2.137 1.3-3.118a1.49 1.49 0 00-.113-1.572 527.97 527.97 0 01-1.843-2.566 3.473 3.473 0 01.213-4.345 28.85 28.85 0 012.214-2.226 3.485 3.485 0 014.37-.218c.808.583 1.783 1.288 2.553 1.832a1.483 1.483 0 001.571.118 19.914 19.914 0 013.125-1.285c.545-.171.94-.628 1.031-1.192l.034-.211c.146-.9.323-1.991.478-2.906a3.472 3.472 0 013.222-2.921 29.076 29.076 0 013.14-.008 3.487 3.487 0 013.245 2.936c.159.983.351 2.17.51 3.1.092.57.485 1.024 1.027 1.194 1.09.351 2.137.788 3.118 1.3a1.49 1.49 0 001.572-.113 527.97 527.97 0 012.566-1.843 3.47 3.47 0 014.345.213 28.85 28.85 0 012.226 2.214 3.487 3.487 0 01.218 4.37c-.583.808-1.288 1.783-1.832 2.553a1.487 1.487 0 00-.118 1.571c.523 1.021.955 2.07 1.285 3.125.171.545.628.94 1.192 1.031l.211.034c.9.146 1.991.323 2.906.478a3.472 3.472 0 012.921 3.222c.06 1.022.062 2.076.008 3.14a3.487 3.487 0 01-2.936 3.245c-.984.159-2.171.351-3.101.51a1.486 1.486 0 00-1.194 1.027 19.998 19.998 0 01-1.3 3.118 1.49 1.49 0 00.113 1.572c.555.769 1.262 1.75 1.843 2.566a3.473 3.473 0 01-.213 4.345 28.85 28.85 0 01-2.214 2.226 3.488 3.488 0 01-4.37.218c-.808-.583-1.783-1.288-2.553-1.832a1.487 1.487 0 00-1.571-.118c-1.021.523-2.07.955-3.125 1.285-.545.171-.94.628-1.031 1.192l-.034.211a448.5 448.5 0 01-.478 2.906 3.472 3.472 0 01-3.222 2.921c-.537.032-1.082.048-1.634.048zM21.84 47.258c.554 0 1.11.133 1.625.401.88.46 1.821.853 2.797 1.167a3.47 3.47 0 012.395 2.771c.159.926.352 2.121.511 3.11a1.493 1.493 0 001.384 1.258c.979.05 1.959.047 2.903-.008a1.484 1.484 0 001.372-1.251c.155-.917.331-2.004.476-2.899l.034-.211a3.481 3.481 0 012.408-2.78c.947-.296 1.89-.684 2.803-1.152a3.473 3.473 0 013.654.267c.767.542 1.748 1.25 2.561 1.837.572.411 1.34.375 1.868-.09a26.83 26.83 0 002.047-2.058 1.481 1.481 0 00.085-1.854 449.35 449.35 0 00-1.839-2.56 3.48 3.48 0 01-.263-3.669c.46-.88.853-1.821 1.167-2.797a3.47 3.47 0 012.771-2.395c.926-.159 2.121-.352 3.11-.511a1.493 1.493 0 001.258-1.384c.049-.978.047-1.959-.008-2.903a1.484 1.484 0 00-1.251-1.372c-.917-.155-2.004-.331-2.899-.476l-.211-.034a3.481 3.481 0 01-2.78-2.408 17.828 17.828 0 00-1.152-2.803 3.469 3.469 0 01.267-3.654c.542-.767 1.25-1.748 1.837-2.561a1.492 1.492 0 00-.09-1.868 26.83 26.83 0 00-2.058-2.047 1.483 1.483 0 00-1.854-.085 449.35 449.35 0 00-2.56 1.839 3.485 3.485 0 01-3.669.263c-.88-.46-1.821-.853-2.797-1.167a3.47 3.47 0 01-2.395-2.771c-.159-.926-.352-2.121-.511-3.11a1.493 1.493 0 00-1.384-1.258 27.003 27.003 0 00-2.903.008 1.484 1.484 0 00-1.372 1.251c-.155.917-.331 2.004-.476 2.899l-.034.211a3.481 3.481 0 01-2.408 2.78c-.947.296-1.89.684-2.803 1.152a3.469 3.469 0 01-3.654-.267c-.767-.542-1.748-1.25-2.561-1.837a1.492 1.492 0 00-1.868.09 26.83 26.83 0 00-2.047 2.058 1.481 1.481 0 00-.085 1.854 449.35 449.35 0 001.839 2.56 3.48 3.48 0 01.263 3.669c-.46.88-.853 1.821-1.167 2.797a3.47 3.47 0 01-2.771 2.395c-.926.159-2.121.352-3.11.511a1.493 1.493 0 00-1.258 1.384c-.049.978-.047 1.959.008 2.903.044.693.559 1.26 1.251 1.372.917.155 2.004.331 2.899.476l.211.034a3.481 3.481 0 012.78 2.408c.296.947.684 1.89 1.152 2.803a3.469 3.469 0 01-.267 3.654c-.542.767-1.25 1.748-1.837 2.561a1.492 1.492 0 00.09 1.868 26.83 26.83 0 002.058 2.047 1.481 1.481 0 001.854.085 449.35 449.35 0 002.56-1.839 3.482 3.482 0 012.044-.664z"/><linearGradient id="c" x1="32" x2="32" y1="13.917" y2="48.258" gradientUnits="userSpaceOnUse" spreadMethod="reflect"><stop offset="0" stop-color="#6dc7ff"/><stop offset="1" stop-color="#e6abff"/></linearGradient><path fill="url(#c)" d="M32 48c-9.374 0-17-7.626-17-17s7.626-17 17-17 17 7.626 17 17-7.626 17-17 17zm0-32c-8.271 0-15 6.729-15 15s6.729 15 15 15 15-6.729 15-15-6.729-15-15-15z"/><linearGradient id="d" x1="32" x2="32" y1="19.167" y2="43.62" gradientUnits="userSpaceOnUse" spreadMethod="reflect"><stop offset="0" stop-color="#1a6dff"/><stop offset="1" stop-color="#c822ff"/></linearGradient><path fill="url(#d)" d="M32 43c-6.617 0-12-5.383-12-12s5.383-12 12-12 12 5.383 12 12-5.383 12-12 12zm0-22c-5.514 0-10 4.486-10 10s4.486 10 10 10 10-4.486 10-10-4.486-10-10-10z"/></svg>